<!DOCTYPE svg PUBLIC "-//W3C//DTD SVG 1.1//EN" "http://www.w3.org/Graphics/SVG/1.1/DTD/svg11.dtd">
<!-- Uploaded to: SVG Repo, www.svgrepo.com, Transformed by: SVG Repo Mixer Tools -->
<svg fill="#ffffff" height="64px" width="64px" version="1.1" id="Capa_1" xmlns="http://www.w3.org/2000/svg" xmlns:xlink="http://www.w3.org/1999/xlink" viewBox="-20.17 -20.17 65.87 65.87" xml:space="preserve" stroke="#ffffff" stroke-width="0.153186" transform="rotate(0)">
<g id="SVGRepo_bgCarrier" stroke-width="0">
<path transform="translate(-20.17, -20.17), scale(2.0584375)" d="M16,26.37970712315291C18.195094297632558,26.39285266631076,19.797090249564658,29.903747665787364,21.874216029992322,29.193705221220384C23.848021227613852,28.51898177364484,22.918271736890752,25.03511821305637,24.355617521603605,23.523431809057783C25.849529825330468,21.952253222576402,29.504695766184017,22.664753092167135,30.071749863474118,20.572188691105453C30.655303582224512,18.41873676509015,27.18289746785505,17.053511037954372,26.69908470606468,14.875480883926379C26.288022868534767,13.024961120873416,28.3523763950758,11.046444167120308,27.572019206921695,9.318891595816243C26.815418465625754,7.643930980449624,24.57056900297139,7.27728994577235,22.91055295915106,6.488439846565916C21.44466304474035,5.791839709047146,19.87776851985596,5.489026002108662,18.351465175160225,4.937226135551207C16.61634539785218,4.309933490935633,15.056890456250954,2.7008493491925187,13.234716442832259,2.9903637157029372C11.431280659131543,3.276900876597219,10.312572020554683,5.109810545061226,9.037581849270406,6.417053534575441C7.895269529853082,7.58826238388748,7.3372752581507665,9.206321760615609,6.1133100708273425,10.291916907997797C4.290216589734455,11.908908515926235,0.6292006832503526,11.948360920504873,0.11551673574858157,14.330473533920406C-0.3678076841395939,16.571799552743283,2.727026924321374,18.00812797230452,4.044745052251031,19.88449780600954C5.042870529427142,21.30578244642671,6.0288225578405115,22.666805176496467,6.987082990640539,24.115266926148042C8.089238985223261,25.781234491601523,8.219688152773212,28.63679150892542,10.157025477662902,29.123535646154515C12.266938002348677,29.653638245357527,13.824552942093424,26.36667923946784,16,26.37970712315291" fill="#000000" strokewidth="0"/>
</g>
<g id="SVGRepo_tracerCarrier" stroke-linecap="round" stroke-linejoin="round"/>
<g id="SVGRepo_iconCarrier"> <g> <g id="c179_text"> <path d="M25.198,6.273c-0.014,0.23-0.045,0.389-0.087,0.467c-0.045,0.084-0.176,0.145-0.392,0.183 c-0.469,0.104-0.781-0.074-0.935-0.533C23.239,4.7,22.59,3.578,21.84,3.016c-1.041-0.773-2.862-1.161-5.469-1.161 c-1.054,0-1.633,0.115-1.734,0.343c-0.036,0.075-0.057,0.184-0.057,0.324v18.999c0,0.812,0.188,1.383,0.571,1.709 c0.382,0.32,1.069,0.731,2.201,0.999c0.483,0.103,0.97,0.2,1.034,0.239c0.46,0,0.504,1.057-0.376,1.057 c-0.025,0.016-10.375-0.008-10.375-0.008s-0.723-0.439-0.074-1.023c0.271-0.121,0.767-0.343,0.767-0.343s1.83-0.614,2.211-1.009 c0.434-0.445,0.648-1.164,0.648-2.154V2.521c0-0.369-0.229-0.585-0.687-0.647c-0.049-0.015-0.425-0.02-1.122-0.02 c-2.415,0-4.191,0.418-5.338,1.259C3.176,3.735,2.411,4.877,1.737,6.545C1.52,7.065,1.22,7.234,0.84,7.058 C0.408,6.957,0.251,6.719,0.363,6.353c0.445-1.374,0.668-3.31,0.668-5.814c0-0.292,0.387-0.586,1.163-0.533L23.56,0.064 c0.709-0.104,1.096,0.012,1.16,0.343C25.076,2.096,25.234,4.052,25.198,6.273z"/> </g> <g id="Capa_1_282_"> </g> </g> </g>
</svg>